<svg xmlns="http://www.w3.org/2000/svg" viewBox="0 0 320 320" aria-label="Emblem of India">
  <path fill="#13005A" d="M160 8c-83.9 0-152 68.1-152 152s68.1 152 152 152 152-68.1 152-152S243.9 8 160 8zm0 280c-70.7 0-128-57.3-128-128S89.3 32 160 32s128 57.3 128 128-57.3 128-128 128z"/>
  <path fill="#13005A" d="M160 48c-61.9 0-112 50.1-112 112s50.1 112 112 112 112-50.1 112-112S221.9 48 160 48zm0 200c-48.6 0-88-39.4-88-88s39.4-88 88-88 88 39.4 88 88-39.4 88-88 88z"/>
  <path fill="#13005A" d="M160 80c-44.1 0-80 35.9-80 80s35.9 80 80 80 80-35.9 80-80-35.9-80-80-80zm0 136c-30.9 0-56-25.1-56-56s25.1-56 56-56 56 25.1 56 56-25.1 56-56 56z"/>
  <circle cx="160" cy="160" r="32" fill="#13005A"/>
  <path fill="#13005A" d="M160 112c-26.5 0-48 21.5-48 48s21.5 48 48 48 48-21.5 48-48-21.5-48-48-48zm0 72c-13.2 0-24-10.8-24-24s10.8-24 24-24 24 10.8 24 24-10.8 24-24 24z"/>
  <path fill="#13005A" d="M160 128c-17.7 0-32 14.3-32 32s14.3 32 32 32 32-14.3 32-32-14.3-32-32-32zm0 48c-8.8 0-16-7.2-16-16s7.2-16 16-16 16 7.2 16 16-7.2 16-16 16z"/>
  <path fill="#13005A" d="M160 144c-8.8 0-16 7.2-16 16s7.2 16 16 16 16-7.2 16-16-7.2-16-16-16zm0 24c-4.4 0-8-3.6-8-8s3.6-8 8-8 8 3.6 8 8-3.6 8-8 8z"/>
  <circle cx="160" cy="160" r="8" fill="#13005A"/>
  <path fill="#13005A" d="M160 152c-4.4 0-8 3.6-8 8s3.6 8 8 8 8-3.6 8-8-3.6-8-8-8zm0 12c-2.2 0-4-1.8-4-4s1.8-4 4-4 4 1.8 4 4-1.8 4-4 4z"/>
  <circle cx="160" cy="160" r="4" fill="#13005A"/>
  <path fill="#13005A" d="M160 156c-2.2 0-4 1.8-4 4s1.8 4 4 4 4-1.8 4-4-1.8-4-4-4zm0 6c-1.1 0-2-.9-2-2s.9-2 2-2 2 .9 2 2-.9 2-2 2z"/>
  <circle cx="160" cy="160" r="2" fill="#13005A"/>
</svg>
